<?xml version="1.0" encoding="UTF-8"?>
<svg version="1.1" xmlns="http://www.w3.org/2000/svg" width="1536" height="1024">
<path d="M0 0 C506.88 0 1013.76 0 1536 0 C1536 337.92 1536 675.84 1536 1024 C1029.12 1024 522.24 1024 0 1024 C0 686.08 0 348.16 0 0 Z " fill="#FEFEFE" transform="translate(0,0)"/>
<path d="M0 0 C3.52061662 2.82148708 6.75944223 5.86487133 10 9 C12.06774964 10.85296579 14.15633618 12.67765975 16.2578125 14.4921875 C17.75292495 15.78616375 19.22287241 17.10911684 20.6875 18.4375 C23.54079308 20.36540073 24.61068571 20.54032547 28 20 C30.0142012 18.27997424 31.68022167 16.63970132 33.4375 14.6875 C46.65203779 0.84468266 61.8291524 -10.56695996 81.7578125 -11.3359375 C102.63044269 -11.63444417 120.00605953 -8.43854301 135.6640625 6.63671875 C136.43492187 7.41660156 137.20578125 8.19648438 138 9 C138.77085937 9.74894531 139.54171875 10.49789063 140.3359375 11.26953125 C146.88419057 18.0077507 151.18681872 25.4916008 155 34 C155.45761719 35.01964844 155.91523437 36.03929687 156.38671875 37.08984375 C163.18318565 56.0007148 160.61508364 80.14479539 152.31469727 98.12719727 C146.24566795 110.60382051 137.93537886 121.44268768 129 132 C128.15695312 133.00546875 127.31390625 134.0109375 126.4453125 135.046875 C116.89654186 146.4130431 107.21040372 157.66141255 97.1796875 168.60546875 C95.33754968 170.62917929 93.53511863 172.67624279 91.75 174.75 C82.79996531 185.00223373 73.33072789 194.7771935 63.75 204.4375 C62.9350708 205.26540039 62.1201416 206.09330078 61.28051758 206.94628906 C55.16197732 213.07408395 48.80229349 219.24743476 41.24755859 223.57763672 C38.77705696 224.79088165 38.77705696 224.79088165 38.3359375 227.34765625 C38.4543059 235.57425995 40.36246855 241.70409182 45.7265625 248.0390625 C52.24657048 254.34442001 60.07039742 257.1421628 69.0625 257.5 C79.63124908 257.08982863 87.90382511 252.19663712 95.1796875 244.77734375 C99.84340914 239.68597981 104.20537187 234.35443984 108.546875 228.98828125 C111.33452094 225.59250236 114.19196018 222.26314728 117.0625 218.9375 C121.16114481 214.18227616 125.19715894 209.39867565 129.02734375 204.421875 C131 202 131 202 133.62890625 199.328125 C136.18143195 196.634849 138.2727902 194.28771839 140 191 C139.62173025 187.91003744 138.58765832 185.73891686 137.22265625 182.94921875 C134.27414172 175.83698721 135.2180841 167.46248419 137.5 160.25 C141.65342717 150.3892411 148.31943009 143.49129889 158 139 C166.2811642 135.67377061 177.10492584 135.49640093 185.5 138.625 C195.82520159 143.57971083 203.32440982 151.19419145 207.3046875 162.03125 C209.88377396 173.04307982 208.5443378 183.52469877 202.6796875 193.171875 C196.90629038 201.56380742 188.94332053 206.78615637 179 209 C173.01295512 209.46507679 167.22085194 209.49114995 161.34375 208.19140625 C157.9453594 207.61889804 157.9453594 207.61889804 155.734375 209.8515625 C155.07953125 210.76679688 154.4246875 211.68203125 153.75 212.625 C152.99203125 213.63820313 152.2340625 214.65140625 151.453125 215.6953125 C151.05673828 216.23704102 150.66035156 216.77876953 150.25195312 217.33691406 C148.12504112 220.16228937 145.80564643 222.82022679 143.5 225.5 C140.12457603 229.46676466 136.78816555 233.46025375 133.5 237.5 C129.75336664 242.1030067 125.94207266 246.64579337 122.08374023 251.15527344 C119.90019982 253.71536511 117.77846126 256.28727837 115.72265625 258.953125 C106.64321165 270.70878926 94.88559994 279.43526993 80 282 C76.39769929 282.21269911 72.79551669 282.18510583 69.1875 282.1875 C68.22779297 282.19974609 67.26808594 282.21199219 66.27929688 282.22460938 C51.0310137 282.25583453 39.36284563 276.77939129 28.3125 266.5 C27.549375 265.675 26.78625 264.85 26 264 C25.51917969 263.50113281 25.03835938 263.00226563 24.54296875 262.48828125 C16.26860651 253.50169542 11.99292264 241.86200626 11.9375 229.6875 C11.67978578 226.56519308 11.4225372 225.4065589 9.140625 223.2109375 C7.42340039 222.05700631 5.67820225 220.94412744 3.9140625 219.86328125 C-5.34072294 213.94567716 -13.06528801 205.02168795 -20.8125 197.3125 C-21.61292725 196.51682617 -22.41335449 195.72115234 -23.23803711 194.90136719 C-27.46261369 190.66491022 -31.52740314 186.35087317 -35.42944336 181.81567383 C-37.68162072 179.21199856 -40.02854965 176.70658708 -42.375 174.1875 C-46.69969833 169.51225082 -50.75961671 164.67744591 -54.75390625 159.71484375 C-57.0883059 156.89326505 -59.51990598 154.19409288 -62 151.5 C-66.89358692 146.16975455 -71.46934535 140.63945344 -76 135 C-76.9588296 133.83267098 -77.91850832 132.66603905 -78.87890625 131.5 C-98.32087702 107.76296473 -112.00020087 83.72310612 -109 52 C-106.36769141 32.50903445 -94.48427515 12.85409776 -79 1 C-55.00416744 -15.22208225 -24.37523596 -15.96781867 0 0 Z " fill="#17B493" transform="translate(479,256)"/>
<path d="M0 0 C5.87467473 4.04190713 10.74709169 8.72190462 15.6875 13.8359375 C22.63350348 20.54828337 29.93927818 26.54014021 39.8046875 26.8046875 C52.22223294 26.5227618 58.85257903 20.05158234 67.04199219 11.56445312 C72.0073909 6.4327231 77.12656676 2.04357698 83.2421875 -1.6953125 C84.33080078 -2.37207031 84.33080078 -2.37207031 85.44140625 -3.0625 C94.49621129 -7.6452111 106.93145137 -6.97763103 116.6640625 -5 C119.35782149 -4.09447085 121.74509181 -3.04737785 124.2421875 -1.6953125 C125.40041016 -1.0765625 125.40041016 -1.0765625 126.58203125 -0.4453125 C138.62933394 6.80366279 145.99753754 18.31203799 149.6171875 31.7421875 C152.50130093 48.2357112 148.57824103 64.49956021 139.2421875 78.3046875 C131.90323493 88.53984598 123.79461825 98.21086261 115.57763672 107.74707031 C114.18621065 109.36997677 112.80828405 111.00352402 111.43359375 112.640625 C106.53172436 118.47658743 101.55155129 124.20866295 96.41796875 129.84375 C94.12706292 132.43490022 91.96469537 135.10373195 89.8046875 137.8046875 C85.99753689 142.51545501 81.89164274 146.75843077 77.5625 150.98828125 C75.5984356 152.94903915 73.78159749 154.93706915 71.9921875 157.0546875 C68.5808774 161.01699306 64.96741948 164.76373895 61.3046875 168.4921875 C60.44472168 169.38405762 60.44472168 169.38405762 59.56738281 170.29394531 C54.06848962 175.83635716 47.96955227 180.94790525 39.9296875 181.5546875 C26.51001927 180.64487948 13.93225822 163.63627185 5.24609375 154.1171875 C4.16999785 152.87851596 3.1008211 151.63379541 2.0390625 150.3828125 C0.17238096 148.22395472 -1.75654885 146.1294543 -3.69824219 144.03808594 C-8.43921757 138.9291928 -12.94908748 133.70624573 -17.3203125 128.2734375 C-20.18707583 124.78186678 -23.15562445 121.38948022 -26.1328125 117.9921875 C-31.79038064 111.51373019 -37.14814022 104.85070799 -42.40185547 98.04296875 C-43.78435578 96.27066011 -45.19082691 94.52017073 -46.60546875 92.7734375 C-54.9018461 82.49274269 -62.55371282 71.98336705 -66.7578125 59.3046875 C-67.1703125 58.1084375 -67.5828125 56.9121875 -68.0078125 55.6796875 C-71.25227093 41.07962458 -67.96472874 26.61761151 -60.49609375 13.8671875 C-47.29810528 -5.58872359 -20.29688778 -12.47712365 0 0 Z " fill="#FDFEFD" transform="translate(463.7578125,275.6953125)"/>
<path d="M0 0 C1.71888764 -0.01656837 3.43770614 -0.04387038 5.15625 -0.08203125 C7.62975931 -0.13670232 10.10165212 -0.1586567 12.57568359 -0.17333984 C13.34451874 -0.19600922 14.11335388 -0.21867859 14.90548706 -0.24203491 C17.07910156 -0.23339844 17.07910156 -0.23339844 20.70849609 0.35009766 C22.54223633 2.45019531 22.54223633 2.45019531 23.70849609 5.35009766 C24.16119873 6.41325195 24.61390137 7.47640625 25.08032227 8.57177734 C25.78378784 10.40337402 25.78378784 10.40337402 26.50146484 12.27197266 C26.76435303 12.95221497 27.02724121 13.63245728 27.2980957 14.33331299 C28.1682242 16.5873282 29.03199339 18.84372806 29.89599609 21.10009766 C30.51240275 22.69926297 31.12935756 24.29821709 31.74682617 25.89697266 C32.72162759 28.42127289 33.69602557 30.9457226 34.66874695 33.4708252 C38.04567275 42.23687054 41.45844773 50.98880328 44.87631226 59.73895264 C45.89318987 62.34291165 46.9089931 64.94728758 47.92456055 67.55175781 C50.9655347 75.34765159 54.01496678 83.13994161 57.09521484 90.92041016 C57.60995034 92.22249124 58.12468035 93.5245745 58.6394043 94.82666016 C59.56858058 97.17418515 60.50048992 99.52063118 61.43579102 101.86572266 C63.4607183 106.98234081 65.33430221 112.01943347 66.70849609 117.35009766 C67.36849609 117.35009766 68.02849609 117.35009766 68.70849609 117.35009766 C68.87742874 116.82585205 69.04636139 116.30160645 69.22041321 115.76147461 C71.23277781 109.61125115 73.48228278 103.57304364 75.81396484 97.53759766 C76.40887726 95.99091148 76.40887726 95.99091148 77.01580811 94.41297913 C78.30709291 91.05786779 79.60143477 87.70394598 80.89599609 84.35009766 C81.79328528 82.02126813 82.69050135 79.69241042 83.58764648 77.36352539 C89.88110727 61.03732999 96.21696191 44.72781004 102.59399414 28.43408203 C102.90089676 27.64971771 103.20779938 26.86535339 103.52400208 26.05722046 C104.11197718 24.55549419 104.70064267 23.054038 105.29008484 21.55288696 C106.61163917 18.18218884 107.91823746 14.80751997 109.18554688 11.41601562 C109.84852783 9.64895264 109.84852783 9.64895264 110.52490234 7.84619141 C110.90203369 6.82581787 111.27916504 5.80544434 111.66772461 4.75415039 C112.70849609 2.35009766 112.70849609 2.35009766 114.70849609 0.35009766 C117.43335338 0.17492019 120.05508972 0.11860633 122.77880859 0.15478516 C123.57503632 0.15761505 124.37126404 0.16044495 125.19161987 0.1633606 C127.73906372 0.17457126 130.2861582 0.19967704 132.83349609 0.22509766 C134.55875144 0.23512633 136.28401229 0.24425238 138.00927734 0.25244141 C142.24248523 0.27451344 146.47543139 0.30904899 150.70849609 0.35009766 C152.08877248 3.11065043 151.83763011 5.33288885 151.84220886 8.42358398 C151.84860634 10.36704208 151.84860634 10.36704208 151.85513306 12.34976196 C151.85478351 13.79388431 151.85432197 15.23800663 151.85375977 16.68212891 C151.85675047 18.19640181 151.86015279 19.71067394 151.86393738 21.22494507 C151.87278964 25.34466831 151.87511598 29.4643708 151.87575316 33.58410263 C151.87670114 37.01874036 151.88037807 40.45337321 151.88392526 43.88800907 C151.89207412 51.98767912 151.89450906 60.08733804 151.89379883 68.18701172 C151.89319759 76.55422897 151.90375759 84.92138185 151.91954249 93.2885828 C151.93259722 100.46312038 151.93798361 107.63763687 151.93734342 114.81218624 C151.93708786 119.10134581 151.93997064 123.39044816 151.95052147 127.67959595 C151.96016803 131.71131571 151.96030547 135.74292315 151.95300484 139.77464676 C151.95195476 141.25736275 151.95434679 142.74008561 151.9603653 144.22278976 C151.96802818 146.24071633 151.96226708 148.25868079 151.95573425 150.27661133 C151.95627902 151.40781906 151.95682379 152.53902679 151.95738506 153.70451355 C151.70849609 156.35009766 151.70849609 156.35009766 149.70849609 158.35009766 C145.93715698 158.83173465 142.13209278 158.72048771 138.33349609 158.72509766 C137.27904297 158.74958984 136.22458984 158.77408203 135.13818359 158.79931641 C134.12240234 158.80318359 133.10662109 158.80705078 132.06005859 158.81103516 C131.13016113 158.81925293 130.20026367 158.8274707 129.2421875 158.8359375 C125.7195575 158.16046692 124.81225157 157.28200709 122.70849609 154.35009766 C122.11746548 150.95845692 122.2038289 147.60005949 122.25439453 144.16552734 C122.25381042 143.13106476 122.25322632 142.09660217 122.25262451 141.03079224 C122.25541168 137.61084462 122.28653472 134.19176806 122.31787109 130.77197266 C122.3253312 128.40114824 122.33102522 126.03031765 122.33502197 123.65948486 C122.35029626 117.4187722 122.38959411 111.17843178 122.43383789 104.93786621 C122.47475156 98.57011959 122.49302468 92.20231283 122.51318359 85.83447266 C122.55608615 73.33951742 122.62435964 60.84483849 122.70849609 48.35009766 C108.57162749 82.06915881 108.57162749 82.06915881 94.58349609 115.85009766 C90.1498523 126.61968369 85.71121231 137.3871521 81.21630859 148.13134766 C80.87727509 148.94647827 80.53824158 149.76160889 80.18893433 150.60144043 C77.8242894 156.23430435 77.8242894 156.23430435 76.70849609 157.35009766 C73.59286689 157.65476871 70.46220248 157.62839168 67.33349609 157.66259766 C66.45693359 157.69160156 65.58037109 157.72060547 64.67724609 157.75048828 C63.83419922 157.75886719 62.99115234 157.76724609 62.12255859 157.77587891 C60.96167725 157.79775269 60.96167725 157.79775269 59.77734375 157.82006836 C57.70849609 157.35009766 57.70849609 157.35009766 56.16186523 155.87744141 C54.06211007 152.22606135 52.56862861 148.40623285 51.04052734 144.48681641 C50.68858307 143.5992012 50.33663879 142.711586 49.97402954 141.79707336 C49.21457026 139.88029588 48.45776845 137.96246378 47.70333862 136.04370117 C45.69452237 130.93628987 43.664981 125.83711247 41.63818359 120.73681641 C41.2261821 119.69854706 40.8141806 118.66027771 40.38969421 117.59054565 C36.37484931 107.48302557 32.27643301 97.41084013 28.14599609 87.35009766 C27.67705429 86.20448868 27.67705429 86.20448868 27.19863892 85.03573608 C23.53449134 76.08597471 19.79143891 67.17327388 15.97436523 58.28759766 C15.56200874 57.32660156 15.14965225 56.36560547 14.72480011 55.37548828 C13.71979903 53.03350487 12.71435694 50.6917119 11.70849609 48.35009766 C11.71126147 48.89878163 11.71402685 49.44746561 11.71687603 50.01277637 C11.7831024 63.35777213 11.83256887 76.70273914 11.86393261 90.04786396 C11.87960842 96.50145388 11.9008818 102.95492546 11.93481445 109.40844727 C11.96733934 115.63297379 11.98533467 121.85738627 11.99312782 128.0819912 C11.99868368 130.46032698 12.00953246 132.83865632 12.02568626 135.21694374 C12.0473689 138.54051983 12.05046682 141.86362077 12.04907227 145.18725586 C12.05985809 146.17699905 12.07064392 147.16674225 12.08175659 148.18647766 C12.0755706 149.54313538 12.0755706 149.54313538 12.06925964 150.92720032 C12.07202502 151.71348973 12.0747904 152.49977915 12.07763958 153.30989552 C11.61135092 155.88700486 10.76242039 156.77122094 8.70849609 158.35009766 C6.39599609 158.72241211 6.39599609 158.72241211 3.70849609 158.71337891 C2.73912109 158.71273437 1.76974609 158.71208984 0.77099609 158.71142578 C-0.74494141 158.68725586 -0.74494141 158.68725586 -2.29150391 158.66259766 C-3.80744141 158.66743164 -3.80744141 158.66743164 -5.35400391 158.67236328 C-12.89078962 158.61724051 -12.89078962 158.61724051 -16.29150391 156.35009766 C-16.6634407 153.68610287 -16.6634407 153.68610287 -16.65899658 150.23191833 C-16.66456573 148.92642029 -16.67013489 147.62092224 -16.6758728 146.27586365 C-16.66684948 144.82070744 -16.65753167 143.36555303 -16.64794922 141.91040039 C-16.64873969 140.38465253 -16.65083571 138.85890487 -16.65414429 137.3331604 C-16.65928966 133.18242208 -16.64572094 129.0319306 -16.62861729 124.88123202 C-16.61361419 120.54550691 -16.61475611 116.20978543 -16.61395264 111.8740387 C-16.61025708 104.59298471 -16.59527448 97.31202482 -16.57275391 90.03100586 C-16.54386892 80.67301724 -16.5335303 71.31510442 -16.52907181 61.95707607 C-16.52509728 53.92680149 -16.51259484 45.89654352 -16.49872494 37.86628079 C-16.49461915 35.27754266 -16.491697 32.68880511 -16.48892975 30.10006523 C-16.48404895 26.03963452 -16.47386629 21.97925017 -16.45949173 17.91884232 C-16.45495575 16.4244243 -16.45212701 14.93000003 -16.45108414 13.43557549 C-16.44934785 11.40413883 -16.44085029 9.37271122 -16.4319458 7.34129333 C-16.42897114 6.20178946 -16.42599648 5.06228559 -16.42293167 3.8882513 C-16.10492972 -2.25305239 -4.89407966 0.03463013 0 0 Z " fill="#1264D8" transform="translate(793.29150390625,562.64990234375)"/>
<path d="M0 0 C11.30920509 8.84112745 23.15818194 21.33506497 25.3046875 36.16796875 C25.375 38.0625 25.375 38.0625 25 41.0625 C21.35785643 44.70464357 15.54841555 43.4753281 10.625 43.5 C9.47515625 43.53287109 8.3253125 43.56574219 7.140625 43.59960938 C-1.31807694 43.65383182 -1.31807694 43.65383182 -4.67578125 40.7421875 C-5.11277344 39.85789062 -5.54976563 38.97359375 -6 38.0625 C-12.49346674 26.19512975 -20.54892682 18.84587803 -33.59570312 14.66674805 C-37.51055439 13.68286737 -41.29172061 13.57290558 -45.3125 13.625 C-46.13919189 13.63257324 -46.96588379 13.64014648 -47.81762695 13.64794922 C-58.49197587 13.93326495 -67.0060395 16.91099436 -75 24.0625 C-75.86625 24.825625 -76.7325 25.58875 -77.625 26.375 C-91.19958828 41.73571832 -91.89685269 59.48637063 -91 79.0625 C-89.61838984 91.24348497 -83.57905208 103.85115219 -74.52734375 112.16015625 C-63.44546725 120.50153779 -51.65797378 123.15078476 -38 122.0625 C-25.10915394 119.5638338 -15.84762385 113.50890125 -8 103.0625 C-6.52931414 100.68677668 -5.18351093 98.29877897 -3.91015625 95.8125 C-3 94.0625 -3 94.0625 -2 93.0625 C-0.08541718 92.96278214 1.83282317 92.93169411 3.75 92.9296875 C4.9153125 92.92839844 6.080625 92.92710937 7.28125 92.92578125 C8.5084375 92.92964844 9.735625 92.93351563 11 92.9375 C12.2271875 92.93363281 13.454375 92.92976562 14.71875 92.92578125 C15.8840625 92.92707031 17.049375 92.92835938 18.25 92.9296875 C19.32765625 92.93081543 20.4053125 92.93194336 21.515625 92.93310547 C24 93.0625 24 93.0625 25 94.0625 C26.48569781 104.95761725 19.72113233 115.67499813 13.4453125 124.0546875 C2.2366034 137.8417578 -13.58509111 146.08678554 -31 149.0625 C-54.70663864 150.60722489 -76.58201748 149.00921058 -95.25 132.75 C-96.85119314 131.20580726 -98.43492001 129.64328313 -100 128.0625 C-100.77085937 127.32515625 -101.54171875 126.5878125 -102.3359375 125.828125 C-119.42246614 108.45001737 -122.44855918 84.76812727 -122.3066864 61.49261475 C-122.1957546 52.71735671 -121.23018504 45.27519269 -118 37.0625 C-117.43925781 35.49628906 -117.43925781 35.49628906 -116.8671875 33.8984375 C-109.56931045 14.80796442 -96.48726801 1.1535838 -78.125 -7.62109375 C-52.47766263 -18.42503462 -22.9558074 -16.10711348 0 0 Z " fill="#1264D8" transform="translate(400,573.9375)"/>
<path d="M0 0 C8.0572388 6.17372843 14.18533928 14.38713972 16.10546875 24.61328125 C16.20475324 27.27194842 16.25234053 29.90436132 16.25073242 32.56298828 C16.25409103 33.36015259 16.25744965 34.15731689 16.26091003 34.9786377 C16.27039747 37.60947228 16.27236168 40.24024313 16.2734375 42.87109375 C16.27665034 44.69904609 16.28001443 46.52699816 16.28352356 48.35494995 C16.28950838 52.1830912 16.29136399 56.01120988 16.29077148 59.83935547 C16.29066961 64.75357959 16.30435116 69.66766006 16.32154369 74.58185005 C16.33263716 78.35469229 16.33469156 82.12749941 16.33416176 85.90035629 C16.33534476 87.71291476 16.33978435 89.52547405 16.34749413 91.33801651 C16.35724565 93.86623622 16.3544359 96.39413893 16.34838867 98.92236328 C16.35400818 99.67564911 16.35962769 100.42893494 16.36541748 101.20504761 C16.33378818 106.38496182 16.33378818 106.38496182 14.10546875 108.61328125 C11.78295898 108.85620117 11.78295898 108.85620117 8.9140625 108.84375 C7.88732422 108.84181641 6.86058594 108.83988281 5.80273438 108.83789062 C4.72701172 108.82564453 3.65128906 108.81339844 2.54296875 108.80078125 C1.46337891 108.80013672 0.38378906 108.79949219 -0.72851562 108.79882812 C-8.75438527 108.75342723 -8.75438527 108.75342723 -9.89453125 107.61328125 C-10.12740133 105.93144177 -10.30717291 104.24203965 -10.45703125 102.55078125 C-10.54082031 101.63167969 -10.62460938 100.71257812 -10.7109375 99.765625 C-10.77152344 99.05535156 -10.83210938 98.34507812 -10.89453125 97.61328125 C-11.41015625 98.3609375 -11.92578125 99.10859375 -12.45703125 99.87890625 C-15.2474177 103.00914746 -18.1625922 104.62223019 -21.89453125 106.36328125 C-22.81878906 106.81767578 -22.81878906 106.81767578 -23.76171875 107.28125 C-34.43715451 112.4356986 -49.67592332 112.71652015 -61.0859375 109.70703125 C-70.7044604 106.1639626 -78.70758077 100.59959037 -83.89453125 91.61328125 C-87.4444761 83.26908098 -87.2943241 72.15129665 -85.08984375 63.4296875 C-81.27520398 54.99801822 -74.3356342 49.43792238 -66.01953125 45.73828125 C-48.35613271 39.11728406 -28.46190633 40.44488731 -9.89453125 40.61328125 C-10.26662646 38.06609288 -10.66609744 35.52836903 -11.08203125 32.98828125 C-11.18322266 32.27542969 -11.28441406 31.56257812 -11.38867188 30.828125 C-12.31230671 25.38616841 -13.93737894 22.49533432 -17.89453125 18.61328125 C-24.28309227 14.53594026 -31.48307622 13.57863368 -38.89453125 14.61328125 C-45.71653866 16.343078 -50.01332889 18.73267161 -53.89453125 24.61328125 C-54.91008735 26.60542728 -55.91247772 28.60440822 -56.89453125 30.61328125 C-60.68613422 30.67114793 -64.47762436 30.70683179 -68.26953125 30.73828125 C-69.34976563 30.75503906 -70.43 30.77179687 -71.54296875 30.7890625 C-72.57421875 30.79550781 -73.60546875 30.80195312 -74.66796875 30.80859375 C-76.09761963 30.8243042 -76.09761963 30.8243042 -77.55615234 30.84033203 C-79.89453125 30.61328125 -79.89453125 30.61328125 -81.89453125 28.61328125 C-81.89453125 19.67448155 -76.69834335 11.119839 -70.76953125 4.73828125 C-52.73477664 -11.93706975 -20.35339554 -13.73939431 0 0 Z " fill="#1263D8" transform="translate(1052.89453125,612.38671875)"/>
<path d="M0 0 C6.83321102 6.41353349 11.53096786 15.07219765 11.88371277 24.51809692 C11.89268126 25.97444443 11.89614458 27.43083217 11.89526367 28.88720703 C11.89862228 29.68437134 11.9019809 30.48153564 11.90544128 31.30285645 C11.91492872 33.93369103 11.91689293 36.56446188 11.91796875 39.1953125 C11.92118159 41.02326484 11.92454568 42.85121691 11.92805481 44.6791687 C11.93403963 48.50730995 11.93589524 52.33542863 11.93530273 56.16357422 C11.93520086 61.07779834 11.94888241 65.99187881 11.96607494 70.9060688 C11.97716841 74.67891104 11.97922281 78.45171816 11.97869301 82.22457504 C11.97987601 84.03713351 11.9843156 85.8496928 11.99202538 87.66223526 C12.0017769 90.19045497 11.99896715 92.71835768 11.99291992 95.24658203 C11.99853943 95.99986786 12.00415894 96.75315369 12.00994873 97.52926636 C11.97831943 102.70918057 11.97831943 102.70918057 9.75 104.9375 C7.53515625 105.19628906 7.53515625 105.19628906 4.8125 105.203125 C3.83539062 105.20570313 2.85828125 105.20828125 1.8515625 105.2109375 C0.82804688 105.20320312 -0.19546875 105.19546875 -1.25 105.1875 C-2.27351562 105.19523438 -3.29703125 105.20296875 -4.3515625 105.2109375 C-5.32867188 105.20835937 -6.30578125 105.20578125 -7.3125 105.203125 C-8.21097656 105.20086914 -9.10945312 105.19861328 -10.03515625 105.19628906 C-12.25 104.9375 -12.25 104.9375 -14.25 102.9375 C-14.6640625 100.7734375 -14.6640625 100.7734375 -14.875 98.3125 C-14.94976563 97.49523437 -15.02453125 96.67796875 -15.1015625 95.8359375 C-15.17503906 94.89621094 -15.17503906 94.89621094 -15.25 93.9375 C-15.7346875 94.39640625 -16.219375 94.8553125 -16.71875 95.328125 C-28.96815736 106.54104404 -41.70730056 107.83201954 -57.7890625 107.1328125 C-67.29620282 106.37827755 -76.47208034 101.9878449 -83.03125 95.0546875 C-90.47069667 85.75537916 -91.27906256 76.42869859 -90.25 64.9375 C-88.76205356 58.62572719 -86.31977468 54.08549747 -81.25 49.9375 C-80.67378906 49.44636719 -80.09757812 48.95523438 -79.50390625 48.44921875 C-61.7064418 34.01787434 -35.77077272 36.73340416 -14.25 36.9375 C-15.40296631 25.33276356 -15.40296631 25.33276356 -21.4375 15.75 C-28.39860826 11.26395245 -34.98653701 9.91604416 -43.25 10.9375 C-50.07064249 12.65234904 -54.37360402 15.06417275 -58.25 20.9375 C-59.2655561 22.92964603 -60.26794647 24.92862697 -61.25 26.9375 C-65.06248426 26.96637236 -68.8749407 26.98425492 -72.6875 27 C-73.77611328 27.00837891 -74.86472656 27.01675781 -75.98632812 27.02539062 C-77.02080078 27.02861328 -78.05527344 27.03183594 -79.12109375 27.03515625 C-80.07943115 27.04039307 -81.03776855 27.04562988 -82.02514648 27.05102539 C-84.25 26.9375 -84.25 26.9375 -85.25 25.9375 C-85.96289535 17.01516909 -81.58141944 9.56735686 -76.49609375 2.5 C-57.77711035 -18.20004212 -20.42943556 -16.81172301 0 0 Z " fill="#1263D8" transform="translate(532.25,616.0625)"/>
<path d="M0 0 C12.4297112 9.49312267 19.51103236 21.5968633 22 37 C22.25865822 40.48525365 22.28107588 43.9440533 22.25 47.4375 C22.26160156 48.78231445 22.26160156 48.78231445 22.2734375 50.15429688 C22.27085938 51.00958984 22.26828125 51.86488281 22.265625 52.74609375 C22.26336914 53.51622803 22.26111328 54.2863623 22.25878906 55.07983398 C22 57 22 57 20 59 C17.9233551 59.31785583 17.9233551 59.31785583 15.32250977 59.41186523 C14.34571762 59.45030045 13.36892548 59.48873566 12.36253357 59.52833557 C11.29543655 59.55894577 10.22833954 59.58955597 9.12890625 59.62109375 C8.01794083 59.65883408 6.9069754 59.6965744 5.76234436 59.73545837 C-7.17785971 60.13401339 -20.1177281 60.10991675 -33.0625 60.0625 C-35.50195219 60.05746484 -37.9414054 60.05290557 -40.38085938 60.04882812 C-46.25392941 60.0380054 -52.12695957 60.02143357 -58 60 C-57.69202463 61.60496942 -57.38046238 63.20925085 -57.06738281 64.81323242 C-56.89426575 65.70668869 -56.72114868 66.60014496 -56.54278564 67.52067566 C-54.91340105 74.96334279 -51.3306832 80.82174909 -45 85 C-39.7209317 87.66226077 -35.57442286 88.52269233 -29.6875 88.4375 C-28.94201904 88.42847656 -28.19653809 88.41945313 -27.4284668 88.41015625 C-21.37568773 88.22090423 -16.1179045 87.4549049 -11 84 C-9.66592342 82.02742355 -9.66592342 82.02742355 -8.5 79.87890625 C-6.53256395 77.14384965 -5.59707679 76.14672965 -2.2878418 75.33349609 C0.94566911 75.1765618 4.08077088 75.25211991 7.3125 75.4375 C8.42173828 75.46521484 9.53097656 75.49292969 10.67382812 75.52148438 C18.77447456 75.77447456 18.77447456 75.77447456 20 77 C20 85.63487786 15.64747459 90.9977127 9.9921875 97.203125 C-2.97815156 109.74271479 -18.69425889 111.58057664 -35.8515625 111.31640625 C-42.81818095 111.06481637 -48.62188104 109.94225822 -55 107 C-55.79792969 106.649375 -56.59585937 106.29875 -57.41796875 105.9375 C-69.25526839 100.0697852 -78.79276951 89.70857764 -83.2097168 77.29345703 C-89.38800566 58.89689343 -88.4337333 39.61174467 -80.5 21.87890625 C-73.41644891 8.28365324 -62.66516536 -0.86719856 -48.265625 -5.96875 C-32.50342794 -10.56960752 -13.92031032 -9.06963493 0 0 Z " fill="#1364D8" transform="translate(1261,612)"/>
<path d="M0 0 C10.97302953 9.28613096 17.90272023 22.67556452 19.3671875 37.02734375 C19.52725719 40.19443688 19.59095126 43.35650632 19.6171875 46.52734375 C19.6265332 47.32978516 19.63587891 48.13222656 19.64550781 48.95898438 C19.613189 54.78134225 19.613189 54.78134225 17.3671875 57.02734375 C14.79864939 57.27582603 12.33169086 57.40143216 9.7578125 57.44140625 C8.97488831 57.46081772 8.19196411 57.48022919 7.38531494 57.50022888 C4.79605216 57.5611074 2.20676778 57.60713327 -0.3828125 57.65234375 C-2.17253398 57.69030146 -3.96224751 57.72863579 -5.75195312 57.76733398 C-24.0441814 58.13834522 -42.33788948 58.12908656 -60.6328125 58.02734375 C-60.19914958 60.26765281 -59.75264874 62.50547921 -59.30078125 64.7421875 C-59.05352295 65.98863037 -58.80626465 67.23507324 -58.55151367 68.51928711 C-56.59357799 75.99565644 -52.12529631 80.21694963 -45.66015625 84.1171875 C-37.6697686 87.70439429 -26.05160942 87.33145333 -17.9453125 84.33984375 C-14.13467045 82.56070292 -11.93127718 80.61294865 -9.6328125 77.02734375 C-7.87191186 74.75954801 -7.08170255 74.0930262 -4.19677734 73.67089844 C-2.78452881 73.68491699 -2.78452881 73.68491699 -1.34375 73.69921875 C0.19152344 73.70695313 0.19152344 73.70695313 1.7578125 73.71484375 C2.82515625 73.73546875 3.8925 73.75609375 4.9921875 73.77734375 C6.60480469 73.78507813 6.60480469 73.78507813 8.25 73.79296875 C16.21324936 73.87340561 16.21324936 73.87340561 17.3671875 75.02734375 C17.21764082 83.40195769 13.41730776 88.57589187 7.9921875 94.71484375 C7.1259375 95.47796875 6.2596875 96.24109375 5.3671875 97.02734375 C4.82835937 97.50816406 4.28953125 97.98898437 3.734375 98.484375 C-10.03102912 109.85955204 -27.65986662 110.11667947 -44.6328125 109.02734375 C-57.30655146 107.34866462 -69.61691143 99.84379279 -77.6328125 90.02734375 C-89.37695829 74.61767401 -91.34545515 56.15605644 -88.9453125 37.33984375 C-86.54187841 23.62514293 -79.56224823 9.85144429 -68.6328125 1.02734375 C-48.32246757 -12.77149905 -20.41731634 -15.29784088 0 0 Z " fill="#1263D8" transform="translate(734.6328125,613.97265625)"/>
<path d="M0 0 C1.06734375 -0.00257813 2.1346875 -0.00515625 3.234375 -0.0078125 C4.35328125 -0.00007812 5.4721875 0.00765625 6.625 0.015625 C7.74390625 0.00789062 8.8628125 0.00015625 10.015625 -0.0078125 C11.08296875 -0.00523437 12.1503125 -0.00265625 13.25 0 C14.72339844 0.00338379 14.72339844 0.00338379 16.2265625 0.00683594 C18.625 0.265625 18.625 0.265625 20.625 2.265625 C20.80002995 4.84665806 20.85662279 7.31870663 20.8203125 9.8984375 C20.8174826 10.65027313 20.81465271 11.40210876 20.81173706 12.17672729 C20.80052874 14.58152078 20.77542352 16.98594381 20.75 19.390625 C20.73997102 21.01952588 20.73084503 22.64843258 20.72265625 24.27734375 C20.70058735 28.27358056 20.66605351 32.26953994 20.625 36.265625 C21.46272949 36.26038818 22.30045898 36.25515137 23.16357422 36.24975586 C26.26838936 36.23272486 29.37318071 36.22018018 32.47802734 36.21069336 C34.48406551 36.20318464 36.49008202 36.1904803 38.49609375 36.17773438 C40.38134766 36.17290039 40.38134766 36.17290039 42.3046875 36.16796875 C43.46726074 36.16273193 44.62983398 36.15749512 45.82763672 36.15209961 C48.625 36.265625 48.625 36.265625 50.625 37.265625 C50.68290353 40.55721816 50.71856261 43.84868103 50.75 47.140625 C50.76675781 48.07777344 50.78351563 49.01492188 50.80078125 49.98046875 C50.80722656 50.87636719 50.81367187 51.77226563 50.8203125 52.6953125 C50.83078613 53.52272949 50.84125977 54.35014648 50.85205078 55.20263672 C50.625 57.265625 50.625 57.265625 48.625 59.265625 C45.82763672 59.49267578 45.82763672 59.49267578 42.3046875 59.4609375 C40.41943359 59.45126953 40.41943359 59.45126953 38.49609375 59.44140625 C36.51802734 59.41626953 36.51802734 59.41626953 34.5 59.390625 C33.16016279 59.38059483 31.82031848 59.37146904 30.48046875 59.36328125 C27.19513427 59.33964575 23.91015535 59.30669734 20.625 59.265625 C20.68639723 66.57684906 20.76363573 73.88772851 20.86071491 81.19857121 C20.90531071 84.59386349 20.94458974 87.98903878 20.97143555 91.38452148 C21.00258682 95.29436486 21.05737176 99.20371051 21.11328125 103.11328125 C21.11967117 104.32395767 21.1260611 105.53463409 21.13264465 106.78199768 C21.24074019 113.01108894 21.51258575 117.80447087 24.625 123.265625 C29.86949136 128.18233565 35.83610045 127.32170154 42.55273438 127.13867188 C44.57704749 127.10897962 46.60225677 127.18056605 48.625 127.265625 C51.07486932 129.71549432 50.88131311 130.402703 50.890625 133.765625 C50.89449219 135.0959375 50.89449219 135.0959375 50.8984375 136.453125 C50.89070313 137.38125 50.88296875 138.309375 50.875 139.265625 C50.88660156 140.6578125 50.88660156 140.6578125 50.8984375 142.078125 C50.89585938 142.965 50.89328125 143.851875 50.890625 144.765625 C50.88836914 145.5803125 50.88611328 146.395 50.88378906 147.234375 C50.625 149.265625 50.625 149.265625 48.625 151.265625 C36.75076519 153.27253793 23.98102735 153.60430655 12.625 149.265625 C11.91085937 149.01039063 11.19671875 148.75515625 10.4609375 148.4921875 C3.67425016 145.63601406 -1.44337411 140.31338542 -4.60247803 133.69342041 C-7.55085306 125.35565685 -7.90157688 117.64847291 -7.765625 108.875 C-7.7581433 107.43484288 -7.75245952 105.99467543 -7.74847412 104.55450439 C-7.73336896 100.80607853 -7.69422318 97.0582955 -7.6496582 93.31011963 C-7.60837412 89.46855357 -7.59039318 85.62688129 -7.5703125 81.78515625 C-7.5277096 74.27835616 -7.45964846 66.77208143 -7.375 59.265625 C-8.55578125 59.30042969 -9.7365625 59.33523438 -10.953125 59.37109375 C-12.51040242 59.39923732 -14.06769525 59.42653687 -15.625 59.453125 C-16.79095703 59.49083008 -16.79095703 59.49083008 -17.98046875 59.52929688 C-21.42558047 59.57346497 -23.77153072 59.56560435 -26.89306641 58.01391602 C-28.70249701 55.87926486 -28.86734628 54.87898719 -28.8359375 52.10546875 C-28.83207031 51.31205078 -28.82820313 50.51863281 -28.82421875 49.70117188 C-28.78748047 48.46463867 -28.78748047 48.46463867 -28.75 47.203125 C-28.74871094 46.37490234 -28.74742188 45.54667969 -28.74609375 44.69335938 C-28.65606936 38.54669436 -28.65606936 38.54669436 -26.375 36.265625 C-24.40380859 36.03857422 -24.40380859 36.03857422 -22.0234375 36.0703125 C-21.17265625 36.07675781 -20.321875 36.08320312 -19.4453125 36.08984375 C-18.55585937 36.10660156 -17.66640625 36.12335937 -16.75 36.140625 C-15.40421875 36.15416016 -15.40421875 36.15416016 -14.03125 36.16796875 C-11.81223414 36.1915753 -9.59374923 36.2245019 -7.375 36.265625 C-7.38547363 35.2461377 -7.39594727 34.22665039 -7.40673828 33.17626953 C-7.44288727 29.40058898 -7.46588177 25.62492379 -7.48486328 21.84912109 C-7.49493254 20.21367828 -7.50858881 18.57825351 -7.52587891 16.94287109 C-7.55008705 14.5946813 -7.56147357 12.24672912 -7.5703125 9.8984375 C-7.58579636 8.79835861 -7.58579636 8.79835861 -7.60159302 7.67605591 C-7.60199368 5.87099803 -7.49712755 4.0665467 -7.375 2.265625 C-4.76631631 -0.34305869 -3.62967636 0.00833587 0 0 Z " fill="#1264D8" transform="translate(1111.375,570.734375)"/>
<path d="M0 0 C1.67382812 1.20800781 1.67382812 1.20800781 3 3 C3.35644531 5.32836914 3.35644531 5.32836914 3.328125 8.03515625 C3.32296875 9.00904297 3.3178125 9.98292969 3.3125 10.98632812 C3.291875 12.00146484 3.27125 13.01660156 3.25 14.0625 C3.24484375 15.08150391 3.2396875 16.10050781 3.234375 17.15039062 C3.15441985 24.69116029 3.15441985 24.69116029 2 27 C0.73285156 27.02578125 -0.53429687 27.0515625 -1.83984375 27.078125 C-14.52204478 27.19661978 -14.52204478 27.19661978 -26 32 C-26.5671875 32.3609375 -27.134375 32.721875 -27.71875 33.09375 C-32.99159227 36.91914537 -35.72928734 42.74190586 -37 49 C-37.10007196 51.12801712 -37.1455742 53.25882594 -37.15771484 55.38916016 C-37.17310806 57.33104721 -37.17310806 57.33104721 -37.18881226 59.31216431 C-37.19225018 60.00099323 -37.1956881 60.68982216 -37.19923019 61.39952469 C-37.2110499 63.55960401 -37.23050685 65.71948616 -37.25234985 67.87948608 C-37.31388831 74.01887505 -37.36812627 80.15823876 -37.40136719 86.29785156 C-37.42226473 90.05681678 -37.45751717 93.8154138 -37.50212479 97.57416916 C-37.51631339 99.00709083 -37.52501367 100.44007753 -37.52817917 101.87306595 C-37.53306556 103.87199934 -37.55779326 105.87085479 -37.58349609 107.86962891 C-37.59158295 109.00784088 -37.5996698 110.14605286 -37.60800171 111.3187561 C-37.73736115 112.20356659 -37.86672058 113.08837708 -38 114 C-41.31570301 116.21046868 -42.39114769 116.25630672 -46.25390625 116.265625 C-47.78241211 116.26949219 -47.78241211 116.26949219 -49.34179688 116.2734375 C-50.40462891 116.26570312 -51.46746094 116.25796875 -52.5625 116.25 C-53.62919922 116.25773438 -54.69589844 116.26546875 -55.79492188 116.2734375 C-57.32149414 116.26957031 -57.32149414 116.26957031 -58.87890625 116.265625 C-59.8129126 116.26336914 -60.74691895 116.26111328 -61.70922852 116.25878906 C-64 116 -64 116 -66 114 C-66.25168228 112.0415802 -66.25168228 112.0415802 -66.25396729 109.59692383 C-66.25960693 108.67150787 -66.26524658 107.74609192 -66.27105713 106.79263306 C-66.26700867 105.77438446 -66.26296021 104.75613586 -66.25878906 103.70703125 C-66.2622937 102.63705902 -66.26579834 101.56708679 -66.26940918 100.46469116 C-66.27824019 96.91389554 -66.27237245 93.36329779 -66.265625 89.8125 C-66.26697125 87.35392213 -66.26891145 84.89534453 -66.27142334 82.43676758 C-66.27437646 77.27845735 -66.27007088 72.12021627 -66.26074219 66.96191406 C-66.24934761 60.33698523 -66.25590607 53.71221842 -66.26788712 47.08729553 C-66.27510061 42.00881725 -66.27282013 36.93037762 -66.26763153 31.85189819 C-66.26629362 29.40855897 -66.26794766 26.96521628 -66.27259064 24.5218811 C-66.27764745 21.11214852 -66.2699574 17.70268146 -66.25878906 14.29296875 C-66.26283752 13.27472015 -66.26688599 12.25647156 -66.27105713 11.20736694 C-66.26541748 10.28195099 -66.25977783 9.35653503 -66.25396729 8.40307617 C-66.25283621 7.19297127 -66.25283621 7.19297127 -66.25168228 5.9584198 C-66 4 -66 4 -64 2 C-61.80102539 1.74121094 -61.80102539 1.74121094 -59.09765625 1.734375 C-58.12505859 1.73179687 -57.15246094 1.72921875 -56.15039062 1.7265625 C-55.13138672 1.73429688 -54.11238281 1.74203125 -53.0625 1.75 C-52.04736328 1.74226562 -51.03222656 1.73453125 -49.98632812 1.7265625 C-49.01244141 1.72914063 -48.03855469 1.73171875 -47.03515625 1.734375 C-46.1419165 1.73663086 -45.24867676 1.73888672 -44.32836914 1.74121094 C-42 2 -42 2 -39 4 C-38.48828125 6.8203125 -38.48828125 6.8203125 -38.3125 10.125 C-38.24675781 11.22070312 -38.18101562 12.31640625 -38.11328125 13.4453125 C-38.07589844 14.28835938 -38.03851562 15.13140625 -38 16 C-37.61070312 15.49210938 -37.22140625 14.98421875 -36.8203125 14.4609375 C-27.27901102 2.72117945 -15.03034686 -1.75605811 0 0 Z " fill="#1163D8" transform="translate(635,605)"/>
<path d="M0 0 C0.69867188 -0.01095703 1.39734375 -0.02191406 2.1171875 -0.03320312 C5.52047011 0.01495653 7.77455142 0.42807646 10.70776367 2.17700195 C13 4.5625 13 4.5625 13.56762695 7.67871094 C13.54144287 8.87270508 13.51525879 10.06669922 13.48828125 11.296875 C13.47216797 12.59238281 13.45605469 13.88789063 13.43945312 15.22265625 C13.39767939 16.58595428 13.3553547 17.94923552 13.3125 19.3125 C13.2874091 20.69136624 13.26459729 22.07027597 13.24414062 23.44921875 C13.18518617 26.82141356 13.10293171 30.19140741 13 33.5625 C13.82201904 33.54155273 14.64403809 33.52060547 15.4909668 33.49902344 C19.22301964 33.41576691 22.95487694 33.36380753 26.6875 33.3125 C27.98107422 33.27898437 29.27464844 33.24546875 30.60742188 33.2109375 C32.47817383 33.19160156 32.47817383 33.19160156 34.38671875 33.171875 C35.53358154 33.15092773 36.68044434 33.12998047 37.86206055 33.10839844 C41.66442415 33.65865101 43.28125209 34.90521191 46 37.5625 C47.55743688 40.67737377 47.26686231 43.95825809 47.3125 47.375 C47.35600586 48.44331055 47.35600586 48.44331055 47.40039062 49.53320312 C47.44530392 53.26791638 47.14178313 55.34178605 45.10546875 58.51171875 C41.62281181 61.90391707 39.45132045 61.68165009 34.6796875 61.66015625 C33.42285156 61.65693359 32.16601562 61.65371094 30.87109375 61.65039062 C29.55238281 61.64201172 28.23367188 61.63363281 26.875 61.625 C25.53515789 61.61998489 24.195314 61.61542201 22.85546875 61.61132812 C19.57026794 61.59951086 16.28515603 61.58303617 13 61.5625 C13.01571045 62.38975586 13.0314209 63.21701172 13.04760742 64.06933594 C13.10996304 67.81698777 13.14899346 71.56453045 13.1875 75.3125 C13.21263672 76.61445313 13.23777344 77.91640625 13.26367188 79.2578125 C13.27333984 80.50820313 13.28300781 81.75859375 13.29296875 83.046875 C13.3086792 84.19897461 13.32438965 85.35107422 13.34057617 86.53808594 C12.96448626 89.87787218 12.36613664 91.21608981 10 93.5625 C6.56367253 94.70794249 3.74568045 94.8022802 0.125 94.875 C-1.08929688 94.91238281 -2.30359375 94.94976562 -3.5546875 94.98828125 C-7.58484619 94.49022309 -9.15396989 93.39277718 -12 90.5625 C-13.38308781 87.79632437 -13.11210196 85.55232 -13.09765625 82.4609375 C-13.09443359 81.24921875 -13.09121094 80.0375 -13.08789062 78.7890625 C-13.07532227 76.88253906 -13.07532227 76.88253906 -13.0625 74.9375 C-13.05798828 73.65875 -13.05347656 72.38 -13.04882812 71.0625 C-13.03701203 67.89578708 -13.02053815 64.72916644 -13 61.5625 C-14.17973389 61.60177612 -14.17973389 61.60177612 -15.38330078 61.6418457 C-18.96366216 61.74609476 -22.54370381 61.8109175 -26.125 61.875 C-27.3625 61.91689453 -28.6 61.95878906 -29.875 62.00195312 C-40.16686916 62.1402847 -40.16686916 62.1402847 -43.828125 59.609375 C-46.78195189 55.46551713 -46.82555765 52.46981845 -46.625 47.5 C-46.63144531 46.69755859 -46.63789063 45.89511719 -46.64453125 45.06835938 C-46.57403549 41.2071143 -46.4842736 39.19403231 -44.0859375 36.06640625 C-40.48127232 33.46753716 -38.32857937 33.44414215 -33.8984375 33.46484375 C-32.08085937 33.46967773 -32.08085937 33.46967773 -30.2265625 33.47460938 C-28.95554687 33.48298828 -27.68453125 33.49136719 -26.375 33.5 C-25.09625 33.50451172 -23.8175 33.50902344 -22.5 33.51367188 C-19.33328708 33.52548797 -16.16666644 33.54196185 -13 33.5625 C-13.02618408 32.74048096 -13.05236816 31.91846191 -13.0793457 31.0715332 C-13.1834144 27.33955062 -13.24836128 23.6078734 -13.3125 19.875 C-13.35439453 18.58142578 -13.39628906 17.28785156 -13.43945312 15.95507812 C-13.45556641 14.70791016 -13.47167969 13.46074219 -13.48828125 12.17578125 C-13.51446533 11.02891846 -13.54064941 9.88205566 -13.56762695 8.70043945 C-12.20839139 1.18635144 -6.80186453 -0.23216696 0 0 Z " fill="#17B493" transform="translate(504,314.4375)"/>
<path d="M0 0 C1.70736328 0.01353516 1.70736328 0.01353516 3.44921875 0.02734375 C6.21637881 0.0505972 8.9830676 0.08327132 11.75 0.125 C12.01841082 9.26643186 10.64330561 14.69994436 5.625 22.375 C-2.06641833 29.73200884 -11.14645587 31.68165441 -21.49609375 31.4765625 C-26.54273042 31.00393264 -29.57417786 29.53330948 -33.25 26.125 C-34.2090625 25.25875 -34.2090625 25.25875 -35.1875 24.375 C-37.18093206 20.15361447 -37.95879522 15.680656 -36.6953125 11.125 C-34.67506295 6.97723101 -31.95566574 4.72862602 -27.72387695 2.97094727 C-18.77121076 -0.09043519 -9.35494074 -0.14358233 0 0 Z " fill="#FAFBFD" transform="translate(1031.25,671.875)"/>
<path d="M0 0 C1.70736328 0.01353516 1.70736328 0.01353516 3.44921875 0.02734375 C6.21637881 0.0505972 8.9830676 0.08327132 11.75 0.125 C11.7635734 1.71742414 11.77323113 3.30988195 11.78125 4.90234375 C11.78705078 5.78913818 11.79285156 6.67593262 11.79882812 7.58959961 C11.66029604 14.78287819 8.81369673 19.00452645 4.04296875 24.10546875 C-3.15968834 30.44920591 -11.79195059 31.48278458 -21.046875 31.41015625 C-27.1572559 30.86618332 -31.32333947 27.80678756 -35.25 23.125 C-36.99206859 17.89879424 -37.04597605 13.78063018 -34.6875 8.875 C-25.95231255 -0.98008328 -12.22308704 -0.18760346 0 0 Z " fill="#FBFCFE" transform="translate(506.25,671.875)"/>
<path d="M0 0 C6.04921284 6.33057157 6.7174708 12.08223722 7.6875 20.8125 C-9.8025 20.8125 -27.2925 20.8125 -45.3125 20.8125 C-45.3125 12.5186334 -43.73581747 7.65813326 -38.22265625 1.46484375 C-26.66811718 -9.41814946 -12.6356982 -8.344329 0 0 Z " fill="#FCFDFE" transform="translate(719.3125,632.1875)"/>
<path d="M0 0 C6.56934316 3.7296916 8.97140473 9.91421419 11.25 16.75 C12 20 12 20 12 24 C-5.49 24 -22.98 24 -41 24 C-39.82646677 13.43820097 -38.15264778 7.99032119 -30.0625 1.4765625 C-20.92862327 -5.06246288 -10.00590796 -4.36109872 0 0 Z " fill="#FBFDFE" transform="translate(1244,629)"/>
<path d="M0 0 C4.11232837 2.3607811 6.47223863 4.57630358 8.375 8.9375 C9.30905207 13.57498659 8.86801495 17.57647011 6.75 21.8125 C3.50874475 26.07730954 1.09529474 27.53479776 -4.2109375 28.3203125 C-9.21104498 28.63538777 -12.71069752 28.47803214 -16.6875 25.25 C-20.29259457 21.55865915 -21.44008841 18.63252287 -22 13.5 C-21.42666031 8.05327296 -19.0377243 5.18204284 -15 1.625 C-10.00070633 -1.92712972 -5.86614713 -1.71938795 0 0 Z " fill="#FBFDFC" transform="translate(657.625,415.0625)"/>
<path d="M0 0 C0.05382106 2.62527189 0.09358313 5.24944713 0.125 7.875 C0.14175781 8.62136719 0.15851563 9.36773438 0.17578125 10.13671875 C0.1933959 12.09194461 0.10320189 14.04742021 0 16 C-0.66 16.66 -1.32 17.32 -2 18 C-2 12.39 -2 6.78 -2 1 C-7.61 1 -13.22 1 -19 1 C-19 0.67 -19 0.34 -19 0 C-16.20865148 -0.19425873 -13.41716313 -0.38069517 -10.625 -0.5625 C-9.8309375 -0.61857422 -9.036875 -0.67464844 -8.21875 -0.73242188 C-2.2265625 -1.11328125 -2.2265625 -1.11328125 0 0 Z " fill="#2B6EDA" transform="translate(1106,629)"/>
<path d="M0 0 C0 5.13226977 -3.31996098 8.28905012 -6.75 11.875 C-7.86375 12.926875 -7.86375 12.926875 -9 14 C-9.66 13.67 -10.32 13.34 -11 13 C-9.54300902 11.20724155 -8.08436345 9.41582771 -6.625 7.625 C-5.40683594 6.12839844 -5.40683594 6.12839844 -4.1640625 4.6015625 C-2 2 -2 2 0 0 Z " fill="#10AA82" transform="translate(598,473)"/>
<path d="M0 0 C1.53445094 3.06890187 0.54984289 5.70094266 0 9 C-0.99 9 -1.98 9 -3 9 C-3.33 10.65 -3.66 12.3 -4 14 C-4.66 13.67 -5.32 13.34 -6 13 C-5.1905146 11.01959844 -4.37732831 9.04070923 -3.5625 7.0625 C-3.11003906 5.96035156 -2.65757812 4.85820313 -2.19140625 3.72265625 C-1 1 -1 1 0 0 Z " fill="#0C4ED3" transform="translate(288,598)"/>
<path d="M0 0 C4.455 0.99 4.455 0.99 9 2 C9 2.66 9 3.32 9 4 C10.32 4.66 11.64 5.32 13 6 C7.71862571 5.48474397 4.42778844 3.74522883 0 1 C0 0.67 0 0.34 0 0 Z " fill="#0C4DD2" transform="translate(1199,714)"/>
<path d="M0 0 C0 3 0 3 -2.375 5.6875 C-5 8 -5 8 -7 8 C-5.50902342 4.2047869 -3.24299151 2.38957269 0 0 Z " fill="#0A4FD4" transform="translate(310,573)"/>
<path d="M0 0 C0.66 0.33 1.32 0.66 2 1 C1.375 3.4375 1.375 3.4375 0 6 C-3.125 6.8125 -3.125 6.8125 -6 7 C-4.71937515 5.2925002 -3.38232443 3.62626404 -2 2 C-1.34 2 -0.68 2 0 2 C0 1.34 0 0.68 0 0 Z " fill="#0FAD8A" transform="translate(572,528)"/>
<path d="M0 0 C0.33 0.66 0.66 1.32 1 2 C0.34 2 -0.32 2 -1 2 C-1.20625 2.61875 -1.4125 3.2375 -1.625 3.875 C-3.54775888 6.84653645 -5.66594527 7.13024659 -9 8 C-6.14723863 5.06799526 -3.34920216 2.35684596 0 0 Z " fill="#10A87F" transform="translate(532,254)"/>
<path d="M0 0 C0.97687451 3.03916514 1.105817 4.98413546 0 8 C-0.66 8.66 -1.32 9.32 -2 10 C-1.85950482 8.52031676 -1.71245174 7.04125484 -1.5625 5.5625 C-1.48128906 4.73878906 -1.40007813 3.91507813 -1.31640625 3.06640625 C-1 1 -1 1 0 0 Z " fill="#1153D4" transform="translate(649,641)"/>
</svg>
